Coordinates
version=1
nRows=17
nColumns=24
inDegrees=yes

Units are S.I. units (second, meters, Newtons, ...)
Angles are in degrees.

endheader
time	pelvis_tilt	pelvis_list	pelvis_rotation	pelvis_tx	pelvis_ty	pelvis_tz	hip_flexion_r	hip_adduction_r	hip_rotation_r	knee_angle_r	ankle_angle_r	subtalar_angle_r	mtp_angle_r	hip_flexion_l	hip_adduction_l	hip_rotation_l	knee_angle_l	ankle_angle_l	subtalar_angle_l	mtp_angle_l	lumbar_extension	lumbar_bending	lumbar_rotation
      5.34000000	      4.42662997	     -4.08425679	     -9.88536697	     -1.57832996	      0.72613299	      0.49197385	    -24.39325531	      3.91171220	     12.87291426	     -6.36681430	     20.06989013	     -7.52953605	      0.00000000	     12.72647229	     -3.92498435	     -9.48010606	      8.66510439	      2.22801073	     -9.68319966	      0.00000000	    -24.35451403	     -1.33646766	      8.08071788
      5.35000000	      4.85145471	     -3.78118208	    -10.30376114	     -1.56400778	      0.72501501	      0.49106126	    -25.10248891	      3.06082083	     12.62762575	     -7.87346185	     19.97215412	     -6.51802182	      0.00000000	     12.05534642	     -3.31423858	     -9.30881444	      8.31845632	      0.79265792	    -12.33721435	      0.00000000	    -24.28937273	     -1.69456288	      8.04176472
      5.36000000	      5.29210583	     -3.30806536	    -10.65065330	     -1.54953509	      0.72423848	      0.48998752	    -25.60845899	      2.09220694	     12.30869660	     -9.69810004	     19.57632659	     -5.66968795	      0.00000000	     11.38031538	     -2.54567996	     -8.51707456	      7.58545406	     -1.28892689	    -15.60501340	      0.00000000	    -24.18323510	     -2.21399806	      7.91601719
      5.37000000	      5.77722760	     -2.65318991	    -10.88794559	     -1.53498730	      0.72388308	      0.48872454	    -25.89254214	      1.01190813	     11.74656633	    -11.89826751	     18.91138684	     -4.79181292	      0.00000000	     10.69658596	     -1.59380583	     -7.08026753	      6.54938014	     -3.94916863	    -19.42071292	      0.00000000	    -24.09408031	     -2.90480430	      7.63830269
      5.38000000	      6.30480676	     -1.78569021	    -10.96284082	     -1.52046960	      0.72400368	      0.48724155	    -25.92169984	     -0.17627997	     10.91899825	    -14.49896819	     17.89126746	     -3.99682172	      0.00000000	     10.11906709	     -0.39470781	     -5.35062314	      5.14033798	     -6.75099945	    -23.09405969	      0.00000000	    -24.04175910	     -3.79158663	      7.20398266
      5.39000000	      6.83028205	     -0.72032769	    -10.91274751	     -1.50608526	      0.72458797	      0.48561049	    -25.62330437	     -1.45435423	      9.96821230	    -17.52363383	     16.41543878	     -3.36209305	      0.00000000	      9.74898004	      1.04486697	     -3.78150981	      3.33226054	     -9.06592610	    -26.06447613	      0.00000000	    -23.99764468	     -4.86396310	      6.60924735
      5.40000000	      7.29780386	      0.49831077	    -10.76252051	     -1.49192803	      0.72556154	      0.48390734	    -24.93057211	     -2.76698619	      9.05039185	    -20.96495441	     14.36853778	     -3.05613796	      0.00000000	      9.69091694	      2.67286076	     -2.89943895	      1.08676590	    -10.19767901	    -27.63294905	      0.00000000	    -23.92572318	     -6.08113928	      5.92058629
      5.41000000	      7.82122171	      1.71915879	    -10.44578953	     -1.47802561	      0.72698296	      0.48212333	    -24.06740164	     -3.95600257	      8.23001009	    -24.65324686	     11.48533253	     -3.31475157	      0.00000000	      9.65632098	      4.34099632	     -2.48104306	     -1.33974733	    -10.18935099	    -28.01240113	      0.00000000	    -24.01146775	     -7.27478648	      5.08224048
      5.42000000	      8.11961068	      2.88183171	    -10.10738841	     -1.46447822	      0.72844249	      0.48034871	    -22.53387240	     -5.06415243	      7.29112580	    -28.85355073	      8.26541975	     -3.21069772	      0.00000000	      9.91468015	      5.88112073	     -2.88144607	     -3.88522326	     -8.97692668	    -27.12105574	      0.00000000	    -23.91770201	     -8.36769174	      4.33689188
      5.43000000	      8.43987434	      3.90757709	     -9.81571047	     -1.45124609	      0.73012094	      0.47876873	    -20.81188058	     -5.95341147	      6.92029422	    -33.19189114	      4.27774278	     -3.94161677	      0.00000000	      9.97495721	      7.22005012	     -3.84426374	     -6.17863166	     -6.80579734	    -25.36385284	      0.00000000	    -23.92916492	     -9.35712631	      3.65249687
      5.44000000	      8.65863274	      4.76061574	     -9.61895795	     -1.43835959	      0.73178774	      0.47728836	    -18.65063615	     -6.69407431	      6.72938422	    -37.78585003	      0.00391155	     -4.61107400	      0.00000000	      9.76194649	      8.33877713	     -4.72504478	     -7.84764673	     -4.69724198	    -23.80454462	      0.00000000	    -23.88415011	    -10.16739423	      3.13980616
      5.45000000	      8.85039691	      5.47156159	     -9.58445707	     -1.42579967	      0.73345713	      0.47595260	    -16.18998345	     -7.31262287	      6.85892370	    -42.48712674	     -4.38618648	     -5.40313552	      0.00000000	      9.14887619	      9.31859735	     -5.42132039	     -8.77007952	     -2.82398828	    -22.65520580	      0.00000000	    -23.84177337	    -10.86017692	      2.77941342
      5.46000000	      8.99487575	      6.04681843	     -9.75220914	     -1.41355342	      0.73505400	      0.47477904	    -13.45177229	     -7.78585212	      7.35533724	    -47.19281182	     -8.56304347	     -6.28981166	      0.00000000	      8.14961069	     10.20387931	     -5.73546338	     -8.90392889	     -1.42549026	    -22.17499220	      0.00000000	    -23.75170259	    -11.44456631	      2.61960923
      5.47000000	      9.18980978	      6.50935672	    -10.06844004	     -1.40160585	      0.73663534	      0.47375449	    -10.63708886	     -8.11723799	      8.07625524	    -51.73892917	    -12.33633107	     -7.39291760	      0.00000000	      6.85444088	     11.01440408	     -6.00060423	     -8.57370956	     -0.26287438	    -21.87410872	      0.00000000	    -23.74150393	    -11.95424750	      2.53721467
      5.48000000	      9.39904376	      6.85021333	    -10.48451192	     -1.38989982	      0.73815214	      0.47286936	     -7.79903009	     -8.24222558	      8.97349356	    -56.00943476	    -15.46850688	     -8.75649263	      0.00000000	      5.36394174	     11.73751229	     -6.13101459	     -7.90640244	      0.67881155	    -21.73367188	      0.00000000	    -23.76050981	    -12.35986187	      2.50240468
      5.49000000	      9.61326507	      7.08941951	    -10.91622876	     -1.37837175	      0.73959213	      0.47208272	     -5.01771660	     -8.16374618	      9.90527614	    -59.89926408	    -17.79889958	    -10.37796831	      0.00000000	      3.78364965	     12.37862995	     -6.13925978	     -7.08691221	      1.42712512	    -21.70375273	      0.00000000	    -23.79875772	    -12.66371930	      2.43228601
      5.50000000	      9.80639192	      7.16909327	    -11.25750430	     -1.36698268	      0.74098381	      0.47135365	     -2.38515901	     -7.77715690	     10.78523217	    -63.29811559	    -19.26103731	    -12.35885594	      0.00000000	      2.20368745	     12.85140331	     -5.95843202	     -6.28960923	      2.16300378	    -21.66996988	      0.00000000	    -23.85267938	    -12.77846539	      2.29689117
